<svg xmlns:xlink="http://www.w3.org/1999/xlink" xmlns="http://www.w3.org/2000/svg" class="css-ze2te4 css-qd6ojx" viewBox="0 0 70.00000000000001 69.99581782109077" width="110"  height="110" ><g transform="translate(-74.41541259931782, -74.41597189270489) scale(2.188289636698996)" class="css-1e98oqk" fill="#111111"><g xmlns="http://www.w3.org/2000/svg" fill="#111111"><path d="M65.254,34.743c-2.33-2.33-8.17,1.38-11.7,4.02c-0.01,0-0.01,0-0.01,0c-4.02-0.94-8.4,0.14-11.53,3.26   c-2.32,2.32-3.6,5.42-3.6,8.71c0,0.96,0.12,1.9,0.34,2.82c0,0,0,0,0,0.01c-2.64,3.52-6.34,9.37-4.01,11.7   c0.51,0.5,1.19,0.73,2.02,0.73c4.06,0,11.48-5.55,17.58-11.65C61.693,47.003,68.244,37.733,65.254,34.743z M36.154,63.843   c-0.46-0.46-0.14-2.98,3.39-7.97c0.6,1.31,1.43,2.52,2.47,3.57c0.51,0.5,1.06,0.95,1.63,1.35   C39.534,63.593,36.764,64.453,36.154,63.843z M60.784,43.643c-0.4-0.57-0.84-1.11-1.35-1.62c-1.06-1.06-2.28-1.88-3.57-2.47   c5-3.53,7.52-3.85,7.98-3.39C64.443,36.763,63.584,39.543,60.784,43.643z" fill="#111111"></path><path d="M55.759,55.762c-1.389,1.389-4.418,4.297-7.881,6.931c0.935,0.225,1.889,0.351,2.846,0.351c3.16,0,6.31-1.2,8.71-3.6   c3.135-3.135,4.207-7.532,3.256-11.549C60.134,51.255,57.295,54.225,55.759,55.762z" fill="#111111"></path></g></g></svg>