<svg xmlns:xlink="http://www.w3.org/1999/xlink" xmlns="http://www.w3.org/2000/svg" viewBox="0 0 375 69.86685377521411" preserveAspectRatio="xMidYMid meet" class="css-1r4bsbq" id="ffffhfgd" width="375"  height="69.86685377521411" ><defs id="SvgjsDefs3152"></defs><g id="SvgjsG3153" featurekey="nRdZyp-0" transform="matrix(0.8317482592287394,0,0,0.8317482592287394,-6.656250708229423,-6.653986073829915)" fill="#111111"><path xmlns="http://www.w3.org/2000/svg" d="M85.393,43.559C85.772,45.652,86,47.798,86,50c0,19.882-16.118,36-36,36c-2.189,0-4.321-0.227-6.402-0.601  C58.324,75.031,74.087,59.466,85.393,43.559z" fill="#111111"></path><path xmlns="http://www.w3.org/2000/svg" d="M90.259,9.741C89.08,8.562,87.363,8,85.211,8c-5.105,0-12.68,3.215-21.311,8.798  C59.625,15,54.932,14,50,14c-19.882,0-36,16.118-36,36c0,11.336,5.275,21.402,13.466,27.999c-4.126,2.396-7.579,3.921-10.087,4.592  c0.337-1.217,0.893-2.709,1.682-4.437c-2.302-2.525-4.267-5.293-5.877-8.27c-5.19,9.512-6.753,17.064-3.442,20.375  C10.92,91.438,12.637,92,14.789,92C41.138,92,103.848,23.33,90.259,9.741z M82.622,17.409c-0.659,2.382-2.165,5.821-4.618,10.04  c-1.617-2.009-3.439-3.842-5.444-5.463C76.678,19.595,80.118,18.079,82.622,17.409z M41,29c4.971,0,9,4.029,9,9s-4.029,9-9,9  s-9-4.029-9-9S36.029,29,41,29z" fill="#111111"></path></g><g id="SvgjsG3154" featurekey="Q4qmbg-0" transform="matrix(2.7863643062062846,0,0,2.7863643062062846,92.77090802357816,-0.26618492890208856)" fill="#111111"><path d="M10.18 14.36 l0 5.64 l-2.96 0 l0 -5.64 c0 -1.5 -0.4 -2.16 -1.56 -2.16 c-1.2 0 -1.9 0.66 -1.9 2.16 l0 5.64 l-2.96 0 l0 -9.88 l2.96 0 l0 0.94 c0.76 -0.74 1.8 -1.08 2.66 -1.08 c2.78 0 3.76 1.34 3.76 4.38 z M21.547708333333333 15.08 l0 0.66 l-7.04 0 c0 1.16 1.18 1.98 2.16 1.98 c0.96 0 1.84 -0.38 2.3 -1.22 l1.98 1.82 c-0.8 1.08 -2.02 1.84 -4.28 1.84 c-3.24 0 -5.22 -2.16 -5.22 -5.08 s1.92 -5.1 5.04 -5.1 s5.06 2.14 5.06 5.1 z M14.567708333333332 13.86 l3.88 0 c-0.16 -0.94 -0.84 -1.44 -1.96 -1.44 c-1.08 0 -1.74 0.58 -1.92 1.44 z M27.955416666666665 9.98 c2.9 0 4.82 2.18 4.82 5.1 s-2.12 5.08 -5.02 5.08 c-0.64 0 -1.72 -0.36 -2.04 -0.82 l0 0.66 l-2.96 0 l0 -14.52 l2.96 0 l0 5.34 c0.34 -0.5 1.62 -0.84 2.24 -0.84 z M27.555416666666666 17.92 c1.24 0 2.26 -1.28 2.26 -2.84 c0 -1.58 -1.02 -2.86 -2.26 -2.86 c-1.36 0 -2.24 1.54 -2.24 2.86 s0.9 2.84 2.24 2.84 z M34.223124999999996 15.76 l0 -5.64 l2.96 0 l0 5.64 c0 1.52 0.42 2.16 1.56 2.16 c1.2 0 1.9 -0.64 1.9 -2.16 l0 -5.64 l2.96 0 l0 9.88 l-2.96 0 l0 -0.9 c-0.56 0.7 -1.78 1.06 -2.64 1.06 c-2.78 0 -3.78 -1.32 -3.78 -4.4 z M48.19083333333333 5.119999999999999 l0 14.88 l-2.98 0 l0 -14.88 l2.98 0 z M52.25854166666666 13.04 l-2.2 -1.26 c1.1 -1.24 2.58 -1.82 4.12 -1.82 c2.96 0 4.16 1.62 4.16 3.14 l0 6.9 l-2.96 0 l0 -0.7 c-0.46 0.48 -1.28 0.84 -2.2 0.84 c-2.7 0 -3.74 -1.2 -3.74 -3.04 c0 -2.08 1.68 -3.48 4.4 -3.48 l1.54 0 c0 -0.74 -0.56 -1.22 -1.4 -1.22 c-0.86 0 -1.28 0.16 -1.72 0.64 z M55.37854166666666 16.740000000000002 l0 -0.88 l-1.74 0 c-0.78 0 -1.36 0.54 -1.24 1.3 c0.08 0.54 0.56 0.76 1.24 0.76 c1.3 0 1.74 -0.74 1.74 -1.18 z M66.04624999999999 5.82 l0 2.34 c-0.42 -0.38 -1.08 -0.4 -1.26 -0.4 c-1.02 0 -1.08 1.08 -1.08 1.9 l0 0.46 l2.34 0 l0 2.44 l-2.34 0 l0 7.44 l-2.96 0 l0 -7.44 l-1.1 0 l0 -2.44 l1.1 0 l0 -0.46 c0 -3.12 1.16 -4.36 3.68 -4.36 c0.6 0 1.16 0.24 1.62 0.52 z M71.97395833333331 12.42 c-1.22 0 -2.24 1.08 -2.24 2.66 c0 1.56 1.02 2.64 2.24 2.64 c1.24 0 2.26 -1.08 2.26 -2.64 c0 -1.58 -1.02 -2.66 -2.26 -2.66 z M71.97395833333331 9.98 c2.9 0 5.22 2.18 5.22 5.1 s-2.32 5.08 -5.22 5.08 c-2.88 0 -5.2 -2.16 -5.2 -5.08 s2.32 -5.1 5.2 -5.1 z M84.90166666666664 10.26 l-0.4 2.22 c-0.74 -0.32 -0.88 -0.26 -1.22 -0.26 c-1.2 0 -1.9 0.64 -1.9 2.22 l0 5.56 l-2.96 0 l0 -9.88 l2.96 0 l0 0.88 c0.38 -0.68 1.42 -1.02 2.08 -1.02 c0.62 0 0.98 0.02 1.44 0.28 z M101.28937499999998 20 l-2.98 0 l0 -5.64 c0 -1.52 -0.42 -2.16 -1.54 -2.16 c-1.2 0 -1.9 0.64 -1.9 2.16 l0 5.64 l-2.98 0 l0 -5.64 c0 -1.52 -0.4 -2.16 -1.54 -2.16 c-1.2 0 -1.92 0.64 -1.92 2.16 l0 5.64 l-2.96 0 l0 -9.88 l2.96 0 l0 0.9 c0.7 -0.7 1.76 -1.04 2.7 -1.04 c1.4 0 2.3 0.52 2.94 1.34 c0.54 -0.66 1.7 -1.26 3.44 -1.34 c2.78 0 3.78 1.32 3.78 4.38 l0 5.64 z" fill="#111111"></path></g></svg>