<svg xmlns:xlink="http://www.w3.org/1999/xlink" xmlns="http://www.w3.org/2000/svg" viewBox="0 0 370.00000000000006 69.99581782109077" preserveAspectRatio="xMidYMid meet" class="css-1r4bsbq" id="adehfgec" width="370.00000000000006"  height="69.99581782109077" ><defs id="SvgjsDefs3543"></defs><g id="SvgjsG3544" featurekey="xG21Y3-0" transform="matrix(2.188289636698996,0,0,2.188289636698996,-74.41541259931782,-74.41597189270489)" fill="#111111"><g xmlns="http://www.w3.org/2000/svg"><path d="M65.254,34.743c-2.33-2.33-8.17,1.38-11.7,4.02c-0.01,0-0.01,0-0.01,0c-4.02-0.94-8.4,0.14-11.53,3.26   c-2.32,2.32-3.6,5.42-3.6,8.71c0,0.96,0.12,1.9,0.34,2.82c0,0,0,0,0,0.01c-2.64,3.52-6.34,9.37-4.01,11.7   c0.51,0.5,1.19,0.73,2.02,0.73c4.06,0,11.48-5.55,17.58-11.65C61.693,47.003,68.244,37.733,65.254,34.743z M36.154,63.843   c-0.46-0.46-0.14-2.98,3.39-7.97c0.6,1.31,1.43,2.52,2.47,3.57c0.51,0.5,1.06,0.95,1.63,1.35   C39.534,63.593,36.764,64.453,36.154,63.843z M60.784,43.643c-0.4-0.57-0.84-1.11-1.35-1.62c-1.06-1.06-2.28-1.88-3.57-2.47   c5-3.53,7.52-3.85,7.98-3.39C64.443,36.763,63.584,39.543,60.784,43.643z"></path><path d="M55.759,55.762c-1.389,1.389-4.418,4.297-7.881,6.931c0.935,0.225,1.889,0.351,2.846,0.351c3.16,0,6.31-1.2,8.71-3.6   c3.135-3.135,4.207-7.532,3.256-11.549C60.134,51.255,57.295,54.225,55.759,55.762z"></path></g></g><g id="SvgjsG3545" featurekey="n48U4P-0" transform="matrix(2.0074565472335513,0,0,2.0074565472335513,87.22970973508252,9.199883546148325)" fill="#111111"><path d="M4.5 5.720000000000001 l5.96 9.58 l0.04 0 l0 -9.58 l2.94 0 l0 14.28 l-3.14 0 l-5.94 -9.56 l-0.04 0 l0 9.56 l-2.94 0 l0 -14.28 l3.12 0 z M26.880000000000003 5.720000000000001 l0 2.64 l-7.54 0 l0 3.06 l6.92 0 l0 2.44 l-6.92 0 l0 3.5 l7.7 0 l0 2.64 l-10.84 0 l0 -14.28 l10.68 0 z M35.9 5.720000000000001 c3.0266 0 4.54 1.1733 4.54 3.52 c0 1.3467 -0.64666 2.3466 -1.94 3 c0.88 0.25334 1.5367 0.69668 1.97 1.33 s0.65 1.3967 0.65 2.29 c0 1.28 -0.46334 2.29 -1.39 3.03 s-2.1434 1.11 -3.65 1.11 l-6.92 0 l0 -14.28 l6.74 0 z M35.5 11.5 c1.2667 0 1.9 -0.56666 1.9 -1.7 c0 -1.0933 -0.70666 -1.64 -2.12 -1.64 l-2.98 0 l0 3.34 l3.2 0 z M35.68 17.56 c1.5333 0 2.3 -0.62666 2.3 -1.88 c0 -1.36 -0.74666 -2.04 -2.24 -2.04 l-3.44 0 l0 3.92 l3.38 0 z M46.32 5.720000000000001 l-0.000019531 8.94 c0 1.0533 0.23666 1.8233 0.71 2.31 s1.2167 0.73 2.23 0.73 c1.0933 0 1.86 -0.24334 2.3 -0.73 s0.66 -1.2567 0.66 -2.31 l0 -8.94 l3.14 0 l0 8.94 c0 1.7867 -0.51 3.18 -1.53 4.18 s-2.5434 1.5 -4.57 1.5 c-2.0666 0 -3.5966 -0.5 -4.59 -1.5 s-1.49 -2.3934 -1.49 -4.18 l0 -8.94 l3.14 0 z M61.2 5.720000000000001 l0 11.64 l6.96 0 l0 2.64 l-10.1 0 l0 -14.28 l3.14 0 z M77.03999999999999 5.720000000000001 l5.34 14.28 l-3.26 0 l-1.08 -3.18 l-5.34 0 l-1.12 3.18 l-3.18 0 l5.42 -14.28 l3.22 0 z M75.38 9.24 l-1.86 5.24 l3.7 0 l-1.8 -5.24 l-0.04 0 z M93.66 5.720000000000001 l0 2.64 l-6.9 0 l0 3.3 l5.98 0 l0 2.44 l-5.98 0 l0 5.9 l-3.14 0 l0 -14.28 l10.04 0 z M101.88 5.380000000000001 c2.1066 0 3.8034 0.7 5.09 2.1 s1.93 3.2134 1.93 5.44 c0 2.1734 -0.64666 3.9534 -1.94 5.34 s-2.9866 2.08 -5.08 2.08 c-2.1066 0 -3.8034 -0.69334 -5.09 -2.08 s-1.93 -3.1666 -1.93 -5.34 c0 -2.2134 0.64666 -4.0234 1.94 -5.43 s2.9866 -2.11 5.08 -2.11 z M98 12.92 c0 1.44 0.33998 2.5966 1.02 3.47 s1.6333 1.31 2.86 1.31 c1.2 0 2.1466 -0.43 2.84 -1.29 s1.04 -2.0234 1.04 -3.49 c0 -1.5333 -0.34334 -2.7334 -1.03 -3.6 s-1.6433 -1.3 -2.87 -1.3 c-1.2 0 -2.1434 0.43334 -2.83 1.3 s-1.03 2.0666 -1.03 3.6 z M118.74 5.720000000000001 c1.2 0 2.1968 0.37 2.99 1.11 s1.19 1.6833 1.19 2.83 c0 1.7867 -0.75334 2.98 -2.26 3.58 l0 0.04 c0.50666 0.14666 0.90332 0.39 1.19 0.73 s0.50332 0.73666 0.64998 1.19 s0.24 1.18 0.28 2.18 c0.05334 1.3067 0.24 2.18 0.56 2.62 l-3.14 0 c-0.17334 -0.44 -0.30668 -1.2667 -0.40002 -2.48 c-0.10666 -1.28 -0.34 -2.1166 -0.7 -2.51 s-0.94666 -0.59 -1.76 -0.59 l-3.16 0 l0 5.58 l-3.14 0 l0 -14.28 l7.7 0 z M117.64 12.18 c0.66666 0 1.19 -0.15 1.57 -0.45 s0.57 -0.83 0.57 -1.59 c0 -0.72 -0.18666 -1.23 -0.56 -1.53 s-0.90668 -0.45 -1.6 -0.45 l-3.44 0 l0 4.02 l3.46 0 z M129.9 5.720000000000001 l3.34 9.82 l0.04 0 l3.16 -9.82 l4.42 0 l0 14.28 l-2.94 0 l0 -10.12 l-0.04 0 l-3.5 10.12 l-2.42 0 l-3.5 -10.02 l-0.04 0 l0 10.02 l-2.94 0 l0 -14.28 l4.42 0 z"></path></g></svg>