<svg xmlns:xlink="http://www.w3.org/1999/xlink" xmlns="http://www.w3.org/2000/svg" class="css-ze2te4 css-qd6ojx" viewBox="0 0 70.00000000000001 69.86685377521411" width="110"  height="110" ><g transform="translate(-6.656250708229423, -6.653986073829915) scale(0.8317482592287394)" class="css-1mun45u" fill="#111111"><path xmlns="http://www.w3.org/2000/svg" d="M85.393,43.559C85.772,45.652,86,47.798,86,50c0,19.882-16.118,36-36,36c-2.189,0-4.321-0.227-6.402-0.601  C58.324,75.031,74.087,59.466,85.393,43.559z" fill="#111111"></path><path xmlns="http://www.w3.org/2000/svg" d="M90.259,9.741C89.08,8.562,87.363,8,85.211,8c-5.105,0-12.68,3.215-21.311,8.798  C59.625,15,54.932,14,50,14c-19.882,0-36,16.118-36,36c0,11.336,5.275,21.402,13.466,27.999c-4.126,2.396-7.579,3.921-10.087,4.592  c0.337-1.217,0.893-2.709,1.682-4.437c-2.302-2.525-4.267-5.293-5.877-8.27c-5.19,9.512-6.753,17.064-3.442,20.375  C10.92,91.438,12.637,92,14.789,92C41.138,92,103.848,23.33,90.259,9.741z M82.622,17.409c-0.659,2.382-2.165,5.821-4.618,10.04  c-1.617-2.009-3.439-3.842-5.444-5.463C76.678,19.595,80.118,18.079,82.622,17.409z M41,29c4.971,0,9,4.029,9,9s-4.029,9-9,9  s-9-4.029-9-9S36.029,29,41,29z" fill="#111111"></path></g></svg>